<?xml version="1.0" encoding="iso-8859-1"?>
<!-- Generator: Adobe Illustrator 19.0.0, SVG Export Plug-In . SVG Version: 6.00 Build 0)  -->
<svg version="1.1" id="Capa_1" xmlns="http://www.w3.org/2000/svg" xmlns:xlink="http://www.w3.org/1999/xlink" x="0px" y="0px"
	 viewBox="0 0 512 512" style="enable-background:new 0 0 512 512;" xml:space="preserve">
<g>
	<g>
		<path d="M332.917,171.823C327.229,166.646,320.771,160.771,320,160c0-11.609,14.943-36.1,26.267-54.484l52.358-20.943
			c4.958-1.979,7.688-7.323,6.396-12.49c-1.917-7.604-12-46.156-24.146-58.292C367.75,0.667,336.75,0,330.667,0
			c-2.833,0-5.542,1.125-7.542,3.125c-11,11-44.5,39.542-67.125,39.542c-22.563,0-56.104-28.552-67.125-39.542
			c-2-2-4.708-3.125-7.542-3.125c-6.083,0-37.083,0.667-50.208,13.792c-12.146,12.135-22.229,50.688-24.146,58.292
			c-1.292,5.167,1.438,10.51,6.396,12.49l52.358,20.943c11.323,18.384,26.272,42.845,26.517,53.005
			c-1.021,2.25-7.479,8.125-13.167,13.302C144.646,203.188,64,276.635,64,480c0,5.896,4.771,10.667,10.667,10.667
			c44.104,0,65.521,5.042,88.229,10.385C185.771,506.438,209.438,512,256,512s70.229-5.563,93.104-10.948
			c22.708-5.344,44.125-10.385,88.229-10.385c5.896,0,10.667-4.771,10.667-10.667C448,276.635,367.354,203.188,332.917,171.823z"/>
	</g>
</g>
<g>
</g>
<g>
</g>
<g>
</g>
<g>
</g>
<g>
</g>
<g>
</g>
<g>
</g>
<g>
</g>
<g>
</g>
<g>
</g>
<g>
</g>
<g>
</g>
<g>
</g>
<g>
</g>
<g>
</g>
</svg>
